<?xml version="1.0" standalone="no"?><!DOCTYPE svg PUBLIC "-//W3C//DTD SVG 1.1//EN" "http://www.w3.org/Graphics/SVG/1.1/DTD/svg11.dtd"><svg class="icon" width="200px" height="200.00px" viewBox="0 0 1024 1024" version="1.1" xmlns="http://www.w3.org/2000/svg"><path d="M520 344m-136 0a136 136 0 1 0 272 0 136 136 0 1 0-272 0Z" fill="#BCD6FF" /><path d="M496 144c97.2 0 176 78.8 176 176s-78.8 176-176 176-176-78.8-176-176 78.8-176 176-176z m0 40a136 136 0 1 0 0 272 136 136 0 0 0 0-272z" fill="#5D5D66" /><path d="M736 577.52c-77.232-57.968-152.64-85.024-226.24-81.152-110.4 5.776-161.456 50.08-209.664 104C267.952 636.32 242.592 708.224 224 816c79.584-108.224 157.504-180.096 233.792-215.616 76.272-35.536 169.008-43.152 278.208-22.88z" fill="#BCD6FF" /><path d="M508.704 476.384c78.672-4.128 158.56 24.528 239.296 85.136a20 20 0 1 1-24 32c-73.712-55.328-144.672-80.784-213.2-77.184-93.616 4.912-145.104 34.944-206.624 110.304-34.384 42.128-54.688 105.568-60.224 190.656a20 20 0 0 1-39.904-2.592c6.016-92.736 28.816-163.968 69.152-213.36 68.192-83.536 129.664-119.408 235.52-124.96z" fill="#5D5D66" /><path d="M840.496 644a20 20 0 0 1 2.048 39.904l-2.048 0.096H615.52a20 20 0 0 1-2.048-39.888l2.048-0.112H840.48zM840.496 724a20 20 0 0 1 2.048 39.904l-2.048 0.096H615.52a20 20 0 0 1-2.048-39.888l2.048-0.112H840.48zM840.496 804a20 20 0 0 1 2.048 39.904l-2.048 0.096H615.52a20 20 0 0 1-2.048-39.888l2.048-0.112H840.48z" fill="#5D5D66" /></svg>