<?xml version="1.0" standalone="no"?><!DOCTYPE svg PUBLIC "-//W3C//DTD SVG 1.1//EN" "http://www.w3.org/Graphics/SVG/1.1/DTD/svg11.dtd"><svg class="icon" width="200px" height="200.00px" viewBox="0 0 1024 1024" version="1.1" xmlns="http://www.w3.org/2000/svg"><path d="M432 576m-256 0a256 256 0 1 0 512 0 256 256 0 1 0-512 0Z" fill="#BCD6FF" /><path d="M846.96 553.12a20.736 20.736 0 0 0-15.44 3.376c-4.48 3.12-7.552 7.872-8.496 13.232-27.952 155.968-164.672 269.504-324.256 269.28-181.68 0-329.456-146.704-329.456-327.008a325.648 325.648 0 0 1 96.448-231.264 330.528 330.528 0 0 1 232.96-95.728c159.52 0 296.128 113.44 324.304 269.312 2.496 10.64 12.96 17.472 23.792 15.552a20.56 20.56 0 0 0 16.912-22.768C832.096 271.648 678.288 143.92 498.72 144a372.032 372.032 0 0 0-262.16 107.76A366.56 366.56 0 0 0 128 512c0 202.944 166.32 368 370.72 368 179.648 0.304 333.552-127.52 364.96-303.104 0.96-5.36-0.256-10.88-3.392-15.328a20.64 20.64 0 0 0-13.328-8.432m-195.52-29.28c12.096 0 21.888-9.728 21.888-21.712 0-12-9.792-21.728-21.888-21.728H523.36v-24.32l106.432-99.68c5.68-5.344 8.08-13.28 6.272-20.832a21.808 21.808 0 0 0-15.04-15.808 22.016 22.016 0 0 0-21.296 5.008l-100.64 94.256-100.656-94.24a22 22 0 0 0-30.944 0.896 21.6 21.6 0 0 0 0.928 30.72l111.2 104.16v19.84H345.12c-12.08 0-21.888 9.728-21.888 21.728 0 12 9.808 21.712 21.888 21.712h134.464v61.072h-134.464c-12.08 0-21.888 9.728-21.888 21.728 0 12 9.808 21.712 21.888 21.712h134.464v95.472c0 7.76 4.16 14.928 10.944 18.816 6.768 3.872 15.104 3.872 21.872 0 6.784-3.888 10.944-11.04 10.944-18.816v-95.52h128.08c12.096 0 21.888-9.712 21.888-21.712s-9.792-21.728-21.888-21.728H523.36v-61.072h128.08v0.048z" fill="#5D5D66" /></svg>