<?xml version="1.0" standalone="no"?><!DOCTYPE svg PUBLIC "-//W3C//DTD SVG 1.1//EN" "http://www.w3.org/Graphics/SVG/1.1/DTD/svg11.dtd"><svg class="icon" width="200px" height="200.00px" viewBox="0 0 1024 1024" version="1.1" xmlns="http://www.w3.org/2000/svg"><path d="M512.014222 2.787556C238.222222 2.787556 15.445333 229.76 15.445333 508.743111 15.445333 787.854222 238.208 1014.826667 512 1014.826667c273.820444 0 496.583111-226.972444 496.583111-506.083556C1008.597333 229.888 785.834667 2.787556 512 2.787556z m0 890.112C304.213333 892.899556 135.111111 720.611556 135.111111 508.871111 135.111111 297.130667 304.213333 124.842667 512 124.842667c207.829333 0 376.917333 172.288 376.917333 384.028444 0 211.740444-169.102222 384.028444-376.917333 384.028445z" fill="#BDD2EF" /><path d="M318.762667 297.130667c0 108.743111 86.528 196.892444 193.251555 196.892444 106.737778 0 193.251556-88.149333 193.251556-196.892444 0-108.743111-86.513778-196.906667-193.251556-196.906667-106.723556 0-193.251556 88.163556-193.251555 196.906667z" fill="#60caf6" /><path d="M652.600889 489.457778A231.495111 231.495111 0 0 1 512 536.903111c-52.664889 0-101.347556-17.635556-140.572444-47.445333-87.409778 38.954667-156.273778 112.924444-189.397334 204.643555 64.256 118.371556 188.017778 198.798222 329.969778 198.798223s265.728-80.426667 330.097778-198.798223c-33.237333-91.733333-102.101333-165.688889-189.511111-204.643555z" fill="#60caf6" /></svg>