<?xml version="1.0" standalone="no"?><!DOCTYPE svg PUBLIC "-//W3C//DTD SVG 1.1//EN" "http://www.w3.org/Graphics/SVG/1.1/DTD/svg11.dtd"><svg class="icon" width="200px" height="200.00px" viewBox="0 0 1024 1024" version="1.1" xmlns="http://www.w3.org/2000/svg"><path d="M256 768m-48 0a48 48 0 1 0 96 0 48 48 0 1 0-96 0Z" fill="#BCD6FF" /><path d="M96 432h656a64 64 0 0 1 64 64v192H96V432z" fill="#BCD6FF" /><path d="M688 768m-48 0a48 48 0 1 0 96 0 48 48 0 1 0-96 0Z" fill="#BCD6FF" /><path d="M858.256 371.568c-35.232-35.728-81.392-55.776-130.368-55.776h-132.64v-54.08c0-11.632-8-21.712-19.456-21.712H101.984C90.512 240 80 250.08 80 261.712V674.88c0 11.632 10.512 19.904 21.984 19.904h89.344c-9.056 13.568-14.352 31.104-14.352 48.96 0 48.512 38.912 88.272 86.72 88.272 47.84 0 86.72-39.904 86.72-88.4 0-17.872-5.28-35.264-14.336-48.832H623.2c-9.056 13.568-14.352 31.104-14.352 48.96 0 48.512 38.912 88.272 86.72 88.272 47.84 0 86.72-39.904 86.72-88.4 0-17.872-5.28-35.264-14.336-48.832h123.696c11.488 0 20.352-8.272 20.352-19.904V505.072c0-50.56-18.944-98.208-53.744-133.504z m-594.56 418.56c-24.896 0-45.152-20.544-45.152-45.808s20.256-45.808 45.152-45.808c24.912 0 45.168 20.544 45.168 45.808s-20.256 45.808-45.168 45.808z m431.872 0c-24.896 0-45.152-20.544-45.152-45.808s20.256-45.808 45.152-45.808c24.912 0 45.168 20.544 45.168 45.808s-20.256 45.808-45.168 45.808z m174.64-300.128h-127.728v-122.88c0-2.736-0.064-5.344-0.992-7.728a142.24 142.24 0 0 1 87.36 41.968 144.272 144.272 0 0 1 41.36 88.64zM122.368 281.856h431.632v371.04H122.384V281.872z m472.896 371.04V357.664h108.32c-1.104 2.272-2.368 6.464-2.368 9.456v142.448c0 6.208 3.008 12.096 7.68 16.112l2.848 1.76c3.744 3.2 8.656 4.448 13.568 4.448h144.32v121.04H595.248z" fill="#5D5D66" /></svg>