<?xml version="1.0" standalone="no"?><!DOCTYPE svg PUBLIC "-//W3C//DTD SVG 1.1//EN" "http://www.w3.org/Graphics/SVG/1.1/DTD/svg11.dtd"><svg class="icon" width="200px" height="200.00px" viewBox="0 0 1024 1024" version="1.1" xmlns="http://www.w3.org/2000/svg"><path d="M180 132m96 0l320 0q96 0 96 96l0 352q0 96-96 96l-320 0q-96 0-96-96l0-352q0-96 96-96Z" fill="#BCD6FF" /><path d="M659.392 128a116 116 0 0 1 115.936 112.16l0.064 3.84v172.256a20 20 0 0 1-39.888 2.048l-0.112-2.048V244a76 76 0 0 0-72.512-75.92l-3.488-0.08H276a76 76 0 0 0-75.92 72.528L200 244v471.488a76 76 0 0 0 72.528 75.92l3.472 0.08h146.848a20 20 0 0 1 2.048 39.904l-2.048 0.096H276a116 116 0 0 1-115.936-112.16L160 715.488V244A116 116 0 0 1 272.16 128.064L276 128h383.392z" fill="#5D5D66" /><path d="M649.36 274.272a20 20 0 0 1 2.032 39.888l-2.032 0.112H285.232a20 20 0 0 1-2.048-39.904l2.048-0.096h364.128zM469.04 452.64a20 20 0 0 1 2.048 39.904l-2.048 0.112H285.232a20 20 0 0 1-2.048-39.904l2.048-0.096h183.808zM469.04 612.64a20 20 0 0 1 2.048 39.904l-2.048 0.112H285.232a20 20 0 0 1-2.048-39.904l2.048-0.096h183.808zM709.04 496.64c101.616 0 184 82.4 184 184 0 101.632-82.384 184-184 184s-184-82.368-184-184c0-101.6 82.384-184 184-184z m0 40a144 144 0 1 0 0 288 144 144 0 0 0 0-288zM625.216 452.64a20 20 0 0 1 2.048 39.904l-2.048 0.112H559.04a20 20 0 0 1-2.048-39.904l2.048-0.096h66.176z" fill="#5D5D66" /><path d="M685.04 604.64c10.352 0 18.88 7.888 19.904 17.968l0.096 2.048v72.896h75.808c10.352 0 18.864 7.888 19.888 17.968l0.112 2.048a20 20 0 0 1-17.968 19.888l-2.032 0.112h-95.808a20 20 0 0 1-19.888-17.952l-0.112-2.048V624.64c0-11.04 8.96-20 20-20z" fill="#5D5D66" /></svg>