<?xml version="1.0" standalone="no"?><!DOCTYPE svg PUBLIC "-//W3C//DTD SVG 1.1//EN" "http://www.w3.org/Graphics/SVG/1.1/DTD/svg11.dtd"><svg class="icon" width="200px" height="200.00px" viewBox="0 0 1024 1024" version="1.1" xmlns="http://www.w3.org/2000/svg"><path d="M490.112 546.096m-144 0a144 144 0 1 0 288 0 144 144 0 1 0-288 0Z" fill="#BCD6FF" /><path d="M490.112 318.096c112.672 0 204 91.328 204 204a20 20 0 1 1-40 0c0-90.56-73.44-164-164-164s-164 73.44-164 164 73.44 164 164 164a20 20 0 0 1 0 40c-112.672 0-204-91.328-204-204s91.328-204 204-204z" fill="#5D5D66" /><path d="M471.648 124.448A20 20 0 0 1 495.68 141.168l0.176 2.032 0.384 9.52a97.68 97.68 0 0 0 180.832 47.2 20 20 0 0 1 29.552-5.136l1.664 1.504 75.408 75.808a20 20 0 0 1 0.88 27.264l-1.568 1.6-1.6 1.472a114.944 114.944 0 0 0 82.976 199.68 20 20 0 0 1 1.904 39.968c-85.472 4.064-158.08-61.92-162.144-147.392a154.944 154.944 0 0 1 36.192-107.12l1.088-1.248-45.216-45.44-0.208 0.256a137.728 137.728 0 0 1-170.528 27.168l-3.68-2.176a137.68 137.68 0 0 1-63.488-93.088l-0.752-4.64-79.376 17.168 1.12 3.696a142.08 142.08 0 0 1-82.368 169.632l-3.952 1.568a142.08 142.08 0 0 1-103.36-0.944l-2.384-1.008-33.568 114.992 3.488 0.64a139.68 139.68 0 0 1 111.712 151.808l-0.512 4.16a139.68 139.68 0 0 1-45.376 85.264l-1.952 1.68 63.568 61.84 0.944-0.96a144.784 144.784 0 0 1 187.616-16.08l3.616 2.688a144.752 144.752 0 0 1 51.312 75.712l1.472 5.696 111.968-31.776a20 20 0 0 1 24.048 11.84l0.656 1.952a20 20 0 0 1-11.84 24.032l-1.936 0.656-133.76 37.968a20 20 0 0 1-25.424-17.952 104.752 104.752 0 0 0-185.184-60.064l-2.496 3.136-3.6 4.688a20 20 0 0 1-28.16 3.632l-1.664-1.456L176 729.056a20 20 0 0 1 3.936-31.632A99.68 99.68 0 0 0 147.088 512.96l-3.6-0.56-18.208-2.496a20 20 0 0 1-16.96-23.344l0.48-2.08 46.944-160.768a20 20 0 0 1 30.256-11.04A102.08 102.08 0 0 0 339.2 194.928l-1.28-3.52-5.104-13.44a20 20 0 0 1 12.416-26.08l2.064-0.56 124.368-26.88z" fill="#5D5D66" /><path d="M870.64 566.096a20 20 0 0 1 2.048 39.904l-2.048 0.096H634.112a20 20 0 0 1-2.048-39.904l2.048-0.096h236.528zM870.64 662.096a20 20 0 0 1 2.048 39.904l-2.048 0.096H634.112a20 20 0 0 1-2.048-39.904l2.048-0.096h236.528zM870.64 758.096a20 20 0 0 1 2.048 39.904l-2.048 0.096H634.112a20 20 0 0 1-2.048-39.904l2.048-0.096h236.528z" fill="#5D5D66" /></svg>