<?xml version="1.0" standalone="no"?><!DOCTYPE svg PUBLIC "-//W3C//DTD SVG 1.1//EN" "http://www.w3.org/Graphics/SVG/1.1/DTD/svg11.dtd"><svg class="icon" width="200px" height="200.00px" viewBox="0 0 1024 1024" version="1.1" xmlns="http://www.w3.org/2000/svg"><path d="M144 336m96 0l384 0q96 0 96 96l0 176q0 96-96 96l-384 0q-96 0-96-96l0-176q0-96 96-96Z" fill="#BCD6FF" /><path d="M768 224a96 96 0 0 1 96 96v288a96 96 0 0 1-96 96H240a96 96 0 0 1-96-96V320a96 96 0 0 1 96-96h528z m0 40H240a56 56 0 0 0-55.92 52.928L184 320v288a56 56 0 0 0 52.928 55.92L240 664h528a56 56 0 0 0 55.92-52.928L824 608V320a56 56 0 0 0-52.928-55.92L768 264zM844.224 768c10.928 0 19.776 10.752 19.776 24 0 12.432-7.776 22.64-17.76 23.872l-2.016 0.128H163.776C152.848 816 144 805.248 144 792c0-12.432 7.776-22.64 17.76-23.872L163.776 768h680.448z" fill="#5D5D66" /><path d="M679.008 356.8a20 20 0 0 1 27.568 28.896l-1.584 1.504-150.096 128.336a20 20 0 0 1-24.32 1.296l-1.776-1.376-81.376-70.528-124.848 132.768a20 20 0 0 1-26.608 2.288l-1.664-1.408a20 20 0 0 1-2.288-26.608l1.408-1.664 138.032-146.768a20 20 0 0 1 25.984-2.72l1.68 1.312 82.864 71.824L679.008 356.8z" fill="#5D5D66" /></svg>